<svg xmlns="http://www.w3.org/2000/svg" aria-hidden="true" style="position:absolute;width:0;height:0;overflow:hidden"><defs><symbol id="icon-features-astronaut" viewBox="0 0 32 32"><path fill="#4d5ae5" d="M31.974 4.524a.535.535 0 0 0-.427-.362h-.003l-1.911-.278-.855-1.731c-.179-.365-.776-.365-.956 0l-.855 1.731-1.91.278a.534.534 0 0 0-.296.909l1.383 1.348-.326 1.903a.533.533 0 0 0 .774.561l1.709-.899 1.709.899a.534.534 0 0 0 .773-.565v.003l-.326-1.903L31.84 5.07a.535.535 0 0 0 .134-.55l.001.004zm-2.463 1.327a.534.534 0 0 0-.153.472l.191 1.114-1-.526a.524.524 0 0 0-.499.001l.003-.001-1 .526.191-1.114a.53.53 0 0 0-.153-.472l-.81-.79 1.119-.162a.533.533 0 0 0 .401-.292l.5-1.013.501 1.013a.535.535 0 0 0 .402.292l1.119.162-.809.79zm-3.377 14.671h-1.067v1.067h1.067v-1.067zm0 2.133h-1.067v1.067h1.067v-1.067z" style="fill:var(--color1, #4d5ae5)"/><path fill="#4d5ae5" d="M27.2 21.589h-1.067v1.067H27.2v-1.067zm-2.133 0H24v1.067h1.067v-1.067zm-2.667 4.8h-1.067v1.067H22.4v-1.067zm0 2.134h-1.067v1.067H22.4v-1.067zm1.067-1.067H22.4v1.067h1.067v-1.067zM21.334 27.456h-1.067v1.067h1.067v-1.067zM16 24.256h-1.066v1.067H16v-1.067zm0 2.133h-1.066v1.067H16v-1.067zm1.067-1.066H16v1.067h1.067v-1.067zm-2.133 0h-1.067v1.067h1.067v-1.067zM5.867 6.122H4.801v1.066h1.066V6.122zm0 2.133H4.801v1.067h1.066V8.256zm1.066-1.066H5.867v1.067h1.066V7.189zm-2.133 0H3.733v1.067H4.8V7.189z" style="fill:var(--color1, #4d5ae5)"/><path fill="#2e2f42" d="M24.715 14.159a1.778 1.778 0 0 0-1.179-.704l-.009-.001a1.764 1.764 0 0 0-1.344.356l.004-.003-1.252.96-1.898 1.417-1.358-.541c2.421-1.086 4.114-3.508 4.114-6.32 0-3.823-3.122-6.933-6.961-6.933S7.87 5.5 7.87 9.323a6.86 6.86 0 0 0 1.12 3.758l-2.769-.024c-.008 0-.015.005-.024.005a.52.52 0 0 0-.155.03c-.013.005-.026.008-.038.014-.006.002-.013.003-.019.007L2.751 14.71l-1.893.911a.429.429 0 0 0-.064.036l.001-.001a1.78 1.78 0 0 0-.593 2.304l-.005-.01c.22.429.595.745 1.056.89a1.772 1.772 0 0 0 1.388-.133l-.009.005 1.388-.738 2.264-1.169 1.357-.008-5.442 5.415-.002.002-1.339 1.333c-.303.299-.49.714-.49 1.173v.005a1.668 1.668 0 0 0 1.669 1.663 1.67 1.67 0 0 0 1.18-.485l1.314-1.308 1.74-1.3.901.897L4.07 27.28c-.303.299-.49.714-.49 1.173v.005a1.669 1.669 0 0 0 1.67 1.664c.428 0 .855-.162 1.18-.485l3.482-3.466.001-.002 1.01-1-.004-.003c.007-.006.015-.009.022-.015l5.166-5.658 3.471.494a.522.522 0 0 0 .266-.035l-.004.001c.017-.006.033-.015.05-.023.019-.009.039-.015.057-.027l3.213-2.134c.012-.008.018-.02.029-.029.012-.01.029-.014.04-.025l1.272-1.192a1.777 1.777 0 0 0 .209-2.366l.003.005zM2.13 17.77a.714.714 0 0 1-.558.052.717.717 0 0 1-.215-1.258l.002-.001 1.314-.632.316.925.133.388-.993.527zm3.498-1.827-1.548.8-.255-.747-.183-.537 2.026-1-.04 1.483zm15.099-6.621a5.79 5.79 0 0 1-.599 2.559l-4.181-1.899a1.86 1.86 0 0 0-.782-1.384l-.006-.004 1.464-4.86c2.378.755 4.105 2.974 4.105 5.587zm-11.789 0c0-3.235 2.644-5.867 5.894-5.867.253 0 .5.022.745.053l-1.432 4.753c-.019 0-.037-.005-.057-.005h-.001a1.872 1.872 0 0 0-1.872 1.866 1.873 1.873 0 0 0 1.872 1.867h.001c.694 0 1.294-.383 1.618-.944l3.863 1.755a5.891 5.891 0 0 1-4.736 2.39c-3.25 0-5.895-2.633-5.895-5.867zm5.957.8c0 .441-.362.8-.806.8h-.002a.804.804 0 0 1-.804-.8c0-.441.361-.8.806-.8s.806.359.806.8zM2.465 25.146a.609.609 0 0 1-.855 0 .591.591 0 0 1 0-.844l.962-.959.851.848-.958.955zm3.213 3.734a.606.606 0 0 1-.855.001.591.591 0 0 1 0-.844l.963-.959.851.848-.96.955zm3.483-3.469-.002.001-1.765 1.76-.851-.848 1.763-1.756.002-.001c.04-.04.065-.088.09-.135.007-.014.02-.026.026-.04.017-.041.019-.085.025-.129.004-.024.014-.047.014-.073 0-.035-.012-.07-.02-.105-.007-.032-.007-.065-.018-.096a.511.511 0 0 0-.091-.137c-.01-.012-.014-.027-.025-.038h-.001l-.001-.002-1.607-1.6c-.017-.017-.039-.024-.058-.038a.491.491 0 0 0-.084-.056l-.003-.001a.477.477 0 0 0-.09-.032l-.003-.001a.502.502 0 0 0-.101-.02h-.022a.49.49 0 0 0-.077.006h.003a.59.59 0 0 0-.108.021l.004-.001a.502.502 0 0 0-.096.046l.002-.001c-.02.011-.043.015-.061.029l-1.774 1.324-.901-.897 2.399-2.386 4.36 4.289-.927.919zm6.818-7.017c-.015-.002-.03.004-.045.003l-.026-.001a.562.562 0 0 0-.092.008h.003a.5.5 0 0 0-.187.069l.002-.001a.554.554 0 0 0-.083.061c-.013.011-.028.017-.04.029l-4.698 5.146-4.328-4.257 2.833-2.818a.535.535 0 0 0-.378-.911h-.001l-2.219.013.027-1.607 3.104.027a6.928 6.928 0 0 0 4.978 2.101h.003c.438 0 .864-.045 1.279-.122.04.032.079.064.13.085l2.409.96.152.758.178.885-3.003-.427zm4.041.179-.314-1.558 1.447-1.08.947 1.257-2.08 1.381zm3.754-2.831-.838.785-.931-1.236.831-.637a.73.73 0 0 1 .543-.143.716.716 0 0 1 .395 1.231z" style="fill:var(--color2, #2e2f42)"/><path fill="#2e2f42" d="m13.602 18.544-2.143-2.134a.53.53 0 0 0-.752 0l-2.143 2.134a.533.533 0 0 0 0 .756l2.143 2.133a.53.53 0 0 0 .752 0l2.143-2.133a.532.532 0 0 0 0-.756zm-2.519 1.759-1.386-1.381 1.386-1.381 1.387 1.381-1.387 1.381zm6.081-15.232-.258 1.035c.071.018 1.738.452 1.738 2.149h1.067c0-2.017-1.666-2.966-2.546-3.185zm2.547 4.251h-1.067v1.067h1.067V9.322z" style="fill:var(--color2, #2e2f42)"/></symbol><symbol id="icon-features-clock" viewBox="0 0 32 32"><path fill="#2e2f42" d="M31.297 15.301C31.295 6.849 24.442-.002 15.989 0S.686 6.855.688 15.308C.69 22.096 5.11 27.851 11.229 29.853l.108.031a.67.67 0 0 0 .529-.064.642.642 0 0 0 .284-.357l3.865-12.25a1.913 1.913 0 1 0-.851-3.63l.011-.005-5.106-5.107a.637.637 0 1 0-.902.902l5.104 5.109a1.873 1.873 0 0 0 .532 2.306l.004.003-3.683 11.673C3.846 25.783.119 17.71 2.801 10.432 5.482 3.155 13.556-.573 20.833 2.109s11.004 10.755 8.323 18.032c-1.345 3.581-4.004 6.406-7.374 7.938l-.088.036-.398-1.875a.638.638 0 0 0-1.049-.343l.001-.001-3.837 3.425a.639.639 0 0 0 .227 1.084l.005.001 4.899 1.564a.637.637 0 0 0 .818-.743l.001.004-.391-1.839c5.528-2.374 9.329-7.772 9.329-14.057v-.034.002zm-15.305-.637a.638.638 0 0 1 0 1.276.638.638 0 0 1 0-1.276zm2.101 14.863 2.184-1.948.603 2.84-2.787-.892z" style="fill:var(--color2, #2e2f42)"/><path fill="#4d5ae5" d="M15.354 3.185V4.46a.638.638 0 1 0 1.275 0V3.185a.639.639 0 0 0-1.274-.002v.001zM3.876 14.664a.637.637 0 1 0 .001 1.274h1.275a.638.638 0 1 0 0-1.274H3.877zm24.232 1.275a.637.637 0 1 0 0-1.274h-1.275a.639.639 0 0 0-.002 1.274H28.107z" style="fill:var(--color1, #4d5ae5)"/></symbol><symbol id="icon-features-diligence" viewBox="0 0 32 32"><path fill="#4d5ae5" d="M14.925 14.965h1.066v4.797h-1.066v-4.797zm4.265 2.132h1.066v2.665H19.19v-2.665zm-8.529 1.599h1.066v1.066h-1.066v-1.066zm-3.198-.533h1.066v1.599H7.463v-1.599z" style="fill:var(--color1, #4d5ae5)"/><path fill="#2e2f42" d="M1.599 28.291h25.587a1.6 1.6 0 0 0 1.599-1.599v-2.133a1.6 1.6 0 0 0-1.599-1.599h-.534V9.667l3.028-2.868a1.608 1.608 0 1 0-.742-.753l-.004-.01-2.282 2.163v-1.23a1.6 1.6 0 0 0-1.599-1.599H3.73a1.6 1.6 0 0 0-1.599 1.599V22.961h-.533A1.6 1.6 0 0 0-.001 24.56v2.134a1.6 1.6 0 0 0 1.599 1.599zM30.384 4.837a.533.533 0 0 1 0 1.066.533.533 0 0 1 0-1.066zM3.199 6.969c0-.295.239-.534.533-.534h21.322c.294 0 .533.239.533.534v2.238l-1.066 1.013V8.035a.532.532 0 0 0-.533-.533H4.798a.533.533 0 0 0-.533.533v13.326c0 .295.239.534.533.534h19.19a.534.534 0 0 0 .533-.534v-9.674l1.066-1.01V22.96H3.199V6.969zm4.797 6.93h-.005a1.6 1.6 0 1 0 1.112 2.748l1.853.93a.532.532 0 0 0 .636-.123l3.938-4.431 3.872 2.902a.532.532 0 0 0 .686-.04l3.365-3.188v8.131H5.33V8.568h18.124v2.66L19.682 14.8l-3.905-2.928a.531.531 0 0 0-.717.072v.001l-3.993 4.493-1.493-.746c.011-.064.018-.129.021-.194a1.6 1.6 0 0 0-1.599-1.599zm.533 1.599a.533.533 0 0 1-1.066 0 .533.533 0 0 1 1.066 0zm3.198 8.528h5.331v.533a.533.533 0 0 1-.533.533h-4.264a.533.533 0 0 1-.533-.533v-.533zm-10.661.534c0-.294.239-.533.533-.533h9.062v.533a1.6 1.6 0 0 0 1.599 1.599h4.265a1.6 1.6 0 0 0 1.599-1.599v-.534h9.061c.295 0 .534.238.534.533v2.133a.534.534 0 0 1-.534.533H1.599a.533.533 0 0 1-.533-.533v-2.133z" style="fill:var(--color2, #2e2f42)"/></symbol><symbol id="icon-features-strategy" viewBox="0 0 30 32"><path fill="#2e2f42" d="m29.773 22.098-8.443-8.505.937-4.615c.242.094.499.143.759.145h.032a2.16 2.16 0 1 0-2.029-1.42l-.005-.015-4.96.605L7.973.16A.53.53 0 0 0 7.597 0a.536.536 0 0 0-.373.155L5.711 1.659a.53.53 0 0 0 0 .754l.814.825C5.382 5.3 4.709 7.76 4.709 10.377c0 4.106 1.656 7.825 4.336 10.526l-.001-.001A.506.506 0 0 0 9.19 21a2.986 2.986 0 0 0-.052.546v6.188h-6.4A2.669 2.669 0 0 0 .071 30.4v1.067c.001.295.24.533.534.533h24.534a.535.535 0 0 0 .534-.534v-1.067a2.67 2.67 0 0 0-2.667-2.666h-6.4v-2.742a14.784 14.784 0 0 0 10.166-1.502l-.077.039.819.823a.534.534 0 0 0 .377.16.532.532 0 0 0 .373-.155l1.512-1.505a.535.535 0 0 0 0-.754zM22.28 6.233a1.067 1.067 0 1 1 .752 1.822h-.003a1.066 1.066 0 0 1-.746-1.822h-.002zm-1.256 3.505-.599 2.945-1.175-1.182 1.774-1.764zm-.605-.902-1.92 1.909-1.485-1.493 3.405-.415zM23.004 28.8a1.6 1.6 0 0 1 1.6 1.6v.534H1.138V30.4a1.6 1.6 0 0 1 1.6-1.6h20.267zm-7.467-2.134v1.067h-5.333v-1.067h5.334zM10.204 25.6v-4.053c0-1.294 1.197-2.346 2.666-2.346s2.667 1.053 2.667 2.346V25.6h-5.333zm6.4-1.696v-2.357c0-1.882-1.675-3.413-3.733-3.413h-.059c-1.353 0-2.54.707-3.213 1.771l-.009.016a13.816 13.816 0 0 1-3.811-9.549c0-2.314.567-4.496 1.569-6.414l-.036.077 18.602 18.709c-1.823.947-3.98 1.502-6.266 1.502-1.079 0-2.128-.124-3.136-.357l.093.018zm11.289-.683L6.836 2.041l.755-.752 7.935 7.98c.004 0 .005.007.009.009l13.114 13.191-.757.752z" style="fill:var(--color2, #2e2f42)"/><path fill="#4d5ae5" d="M12.876 20.267h-.007a1.6 1.6 0 0 0-.003 3.2h.007a1.6 1.6 0 0 0 .003-3.2zm.373 1.978a.534.534 0 0 1-.91-.379v-.002a.533.533 0 0 1 .53-.53.535.535 0 0 1 .374.912h.005z" style="fill:var(--color1, #4d5ae5)"/></symbol><symbol id="icon-logo-bottom" viewBox="0 0 155 32"><path fill="#4d5ae5" d="M8.581 7.651h3.624l1.776 5.448 1.776-5.448h3.648l-2.904 7.92 1.728 4.536 4.272-12.48h4.296l-6.648 17.04h-3.408l-2.76-6.672-2.736 6.672H7.813L1.189 7.627h4.272l4.296 12.48 1.68-4.536-2.856-7.92zm32.392 13.56v3.456H28.997V7.627h11.76v3.456h-7.824v3.312h6.72v3.192h-6.72v3.624h8.04zm17.2-.912c0 .976-.264 1.792-.792 2.448-.512.64-1.208 1.12-2.088 1.44s-1.848.48-2.904.48h-8.304V7.627h9.48c.8 0 1.488.216 2.064.648.592.416 1.04.96 1.344 1.632.32.672.48 1.368.48 2.088 0 .8-.208 1.568-.624 2.304-.416.72-1.024 1.264-1.824 1.632.976.288 1.744.8 2.304 1.536.576.736.864 1.68.864 2.832zm-4.008-.792c0-.368-.072-.688-.216-.96a1.71 1.71 0 0 0-.57-.668l-.006-.004a1.272 1.272 0 0 0-.779-.265l-.039.001h.002-4.536v3.72h4.368c.336 0 .632-.08.888-.24.272-.16.488-.376.648-.648s.24-.584.24-.936zm-6.144-8.52v3.528h3.864c.288 0 .552-.064.792-.192a1.54 1.54 0 0 0 .624-.576c.16-.272.24-.608.24-1.008 0-.384-.072-.704-.216-.96a1.336 1.336 0 0 0-.522-.573l-.006-.003a1.372 1.372 0 0 0-.744-.216h-.025.001-4.008z" style="fill:var(--color1, #4d5ae5)"/><path fill="#f4f4fd" d="M71.856 12.619c-.048-.08-.216-.2-.504-.36a10.221 10.221 0 0 0-2.422-1.038l-.074-.018a5.52 5.52 0 0 0-1.535-.216h-.001c-.672 0-1.192.12-1.56.36-.368.224-.552.576-.552 1.056 0 .384.136.688.408.912.288.224.696.424 1.224.6.528.16 1.176.352 1.944.576 1.088.288 2.032.64 2.832 1.056.8.4 1.408.92 1.824 1.56.432.64.648 1.488.648 2.544 0 .96-.176 1.776-.528 2.448a4.535 4.535 0 0 1-1.425 1.598l-.015.01c-.592.4-1.272.696-2.04.888-.707.168-1.518.264-2.351.264h-.026.001c-.832 0-1.688-.08-2.568-.24a15.898 15.898 0 0 1-2.605-.757l.109.037a11.963 11.963 0 0 1-2.251-1.179l.043.027 1.728-3.432c.064.08.272.232.624.456.352.208.784.432 1.296.672.528.224 1.112.424 1.752.6s1.288.264 1.944.264c.704 0 1.224-.112 1.56-.336.352-.224.528-.536.528-.936v-.032c0-.412-.219-.773-.547-.973l-.005-.003c-.352-.24-.84-.456-1.464-.648-.608-.192-1.312-.408-2.112-.648-1.04-.32-1.904-.68-2.592-1.08-.672-.4-1.176-.888-1.512-1.464-.32-.576-.48-1.296-.48-2.16 0-1.2.28-2.208.84-3.024a5.338 5.338 0 0 1 2.27-1.859l.034-.013a7.448 7.448 0 0 1 3.066-.648h.082-.004c.8 0 1.568.096 2.304.288.808.205 1.504.451 2.168.753l-.08-.033c.656.288 1.24.576 1.752.864l-1.728 3.264zm18.245-1.536h-5.184v13.584h-3.936V11.083h-5.208V7.627h14.328v3.456zm9.963 13.728c-1.36 0-2.52-.224-3.48-.672a6.559 6.559 0 0 1-2.342-1.858l-.01-.014a8.279 8.279 0 0 1-1.305-2.653l-.014-.059c-.259-.95-.408-2.04-.408-3.165v-.054.003-8.712h3.936v8.712c0 .64.064 1.264.192 1.872.128.592.336 1.12.624 1.584s.656.832 1.104 1.104c.464.272 1.032.408 1.704.408.688 0 1.264-.136 1.728-.408a3.239 3.239 0 0 0 1.104-1.128c.272-.48.472-1.016.6-1.608s.192-1.2.192-1.824V7.627h3.936v8.712c0 1.184-.152 2.288-.456 3.312a7.859 7.859 0 0 1-1.357 2.73l.013-.018a6.19 6.19 0 0 1-2.313 1.784l-.039.016c-.944.432-2.08.648-3.408.648zm11.329-.144V7.627h6.36c1.872 0 3.432.384 4.68 1.152a7.3 7.3 0 0 1 2.837 3.03l.019.042c.64 1.28.96 2.704.96 4.272 0 1.728-.352 3.232-1.056 4.512a7.456 7.456 0 0 1-2.938 2.957l-.038.019c-1.264.704-2.752 1.056-4.464 1.056h-6.36zm10.848-8.544c0-.992-.176-1.864-.528-2.616a4.004 4.004 0 0 0-1.52-1.766l-.016-.01c-.672-.432-1.48-.648-2.424-.648h-2.424v10.128h2.424c.96 0 1.768-.216 2.424-.648a4.31 4.31 0 0 0 1.525-1.797l.011-.027c.352-.784.528-1.656.528-2.616zm7.052 8.544V7.627h3.936v17.04h-3.936zm15.379.144c-1.28 0-2.44-.24-3.48-.72a8.887 8.887 0 0 1-2.659-1.962l-.005-.006a9.238 9.238 0 0 1-1.682-2.722l-.022-.062c-.4-1.04-.6-2.112-.6-3.216 0-1.136.208-2.216.624-3.24a9.196 9.196 0 0 1 1.78-2.741l-.004.005a8.25 8.25 0 0 1 6.035-2.616h.089-.005c1.264 0 2.408.248 3.432.744a7.971 7.971 0 0 1 2.664 1.968 8.93 8.93 0 0 1 1.707 2.747l.021.061c.4 1.024.6 2.072.6 3.144a8.526 8.526 0 0 1-.624 3.24 8.912 8.912 0 0 1-1.78 2.764l.004-.004a8.898 8.898 0 0 1-2.657 1.897l-.055.023c-1.024.464-2.152.696-3.384.696zm-4.44-8.64c0 .656.096 1.296.288 1.92.192.608.472 1.152.84 1.632.384.48.856.864 1.416 1.152s1.2.432 1.92.432c.752 0 1.408-.144 1.968-.432.56-.304 1.024-.704 1.392-1.2s.64-1.048.816-1.656c.182-.567.287-1.219.287-1.896s-.105-1.329-.299-1.941l.012.045a5.016 5.016 0 0 0-.872-1.642l.008.01a3.976 3.976 0 0 0-1.393-1.142l-.023-.01a4.222 4.222 0 0 0-1.826-.409l-.074.001h.004c-.752 0-1.408.144-1.968.432a4.271 4.271 0 0 0-1.392 1.176 5.172 5.172 0 0 0-.83 1.619l-.01.037a6.538 6.538 0 0 0-.264 1.862v.01-.001z" style="fill:var(--color3, #f4f4fd)"/></symbol><symbol id="icon-logo-top" viewBox="0 0 155 32"><path fill="#4d5ae5" d="M8.581 7.651h3.624l1.776 5.448 1.776-5.448h3.648l-2.904 7.92 1.728 4.536 4.272-12.48h4.296l-6.648 17.04h-3.408l-2.76-6.672-2.736 6.672H7.813L1.189 7.627h4.272l4.296 12.48 1.68-4.536-2.856-7.92zm32.392 13.56v3.456H28.997V7.627h11.76v3.456h-7.824v3.312h6.72v3.192h-6.72v3.624h8.04zm17.2-.912c0 .976-.264 1.792-.792 2.448-.512.64-1.208 1.12-2.088 1.44s-1.848.48-2.904.48h-8.304V7.627h9.48c.8 0 1.488.216 2.064.648.592.416 1.04.96 1.344 1.632.32.672.48 1.368.48 2.088 0 .8-.208 1.568-.624 2.304-.416.72-1.024 1.264-1.824 1.632.976.288 1.744.8 2.304 1.536.576.736.864 1.68.864 2.832zm-4.008-.792c0-.368-.072-.688-.216-.96a1.71 1.71 0 0 0-.57-.668l-.006-.004a1.272 1.272 0 0 0-.779-.265l-.039.001h.002-4.536v3.72h4.368c.336 0 .632-.08.888-.24.272-.16.488-.376.648-.648s.24-.584.24-.936zm-6.144-8.52v3.528h3.864c.288 0 .552-.064.792-.192a1.54 1.54 0 0 0 .624-.576c.16-.272.24-.608.24-1.008 0-.384-.072-.704-.216-.96a1.336 1.336 0 0 0-.522-.573l-.006-.003a1.372 1.372 0 0 0-.744-.216h-.025.001-4.008z" style="fill:var(--color1, #4d5ae5)"/><path fill="#2e2f42" d="M71.856 12.619c-.048-.08-.216-.2-.504-.36a10.221 10.221 0 0 0-2.422-1.038l-.074-.018a5.52 5.52 0 0 0-1.535-.216h-.001c-.672 0-1.192.12-1.56.36-.368.224-.552.576-.552 1.056 0 .384.136.688.408.912.288.224.696.424 1.224.6.528.16 1.176.352 1.944.576 1.088.288 2.032.64 2.832 1.056.8.4 1.408.92 1.824 1.56.432.64.648 1.488.648 2.544 0 .96-.176 1.776-.528 2.448a4.535 4.535 0 0 1-1.425 1.598l-.015.01c-.592.4-1.272.696-2.04.888-.707.168-1.518.264-2.351.264h-.026.001c-.832 0-1.688-.08-2.568-.24a15.898 15.898 0 0 1-2.605-.757l.109.037a11.963 11.963 0 0 1-2.251-1.179l.043.027 1.728-3.432c.064.08.272.232.624.456.352.208.784.432 1.296.672.528.224 1.112.424 1.752.6s1.288.264 1.944.264c.704 0 1.224-.112 1.56-.336.352-.224.528-.536.528-.936v-.032c0-.412-.219-.773-.547-.973l-.005-.003c-.352-.24-.84-.456-1.464-.648-.608-.192-1.312-.408-2.112-.648-1.04-.32-1.904-.68-2.592-1.08-.672-.4-1.176-.888-1.512-1.464-.32-.576-.48-1.296-.48-2.16 0-1.2.28-2.208.84-3.024a5.338 5.338 0 0 1 2.27-1.859l.034-.013a7.448 7.448 0 0 1 3.066-.648h.082-.004c.8 0 1.568.096 2.304.288.808.205 1.504.451 2.168.753l-.08-.033c.656.288 1.24.576 1.752.864l-1.728 3.264zm18.245-1.536h-5.184v13.584h-3.936V11.083h-5.208V7.627h14.328v3.456zm9.963 13.728c-1.36 0-2.52-.224-3.48-.672a6.559 6.559 0 0 1-2.342-1.858l-.01-.014a8.279 8.279 0 0 1-1.305-2.653l-.014-.059c-.259-.95-.408-2.04-.408-3.165v-.054.003-8.712h3.936v8.712c0 .64.064 1.264.192 1.872.128.592.336 1.12.624 1.584s.656.832 1.104 1.104c.464.272 1.032.408 1.704.408.688 0 1.264-.136 1.728-.408a3.239 3.239 0 0 0 1.104-1.128c.272-.48.472-1.016.6-1.608s.192-1.2.192-1.824V7.627h3.936v8.712c0 1.184-.152 2.288-.456 3.312a7.859 7.859 0 0 1-1.357 2.73l.013-.018a6.19 6.19 0 0 1-2.313 1.784l-.039.016c-.944.432-2.08.648-3.408.648zm11.329-.144V7.627h6.36c1.872 0 3.432.384 4.68 1.152a7.3 7.3 0 0 1 2.837 3.03l.019.042c.64 1.28.96 2.704.96 4.272 0 1.728-.352 3.232-1.056 4.512a7.456 7.456 0 0 1-2.938 2.957l-.038.019c-1.264.704-2.752 1.056-4.464 1.056h-6.36zm10.848-8.544c0-.992-.176-1.864-.528-2.616a4.004 4.004 0 0 0-1.52-1.766l-.016-.01c-.672-.432-1.48-.648-2.424-.648h-2.424v10.128h2.424c.96 0 1.768-.216 2.424-.648a4.31 4.31 0 0 0 1.525-1.797l.011-.027c.352-.784.528-1.656.528-2.616zm7.052 8.544V7.627h3.936v17.04h-3.936zm15.379.144c-1.28 0-2.44-.24-3.48-.72a8.887 8.887 0 0 1-2.659-1.962l-.005-.006a9.238 9.238 0 0 1-1.682-2.722l-.022-.062c-.4-1.04-.6-2.112-.6-3.216 0-1.136.208-2.216.624-3.24a9.196 9.196 0 0 1 1.78-2.741l-.004.005a8.25 8.25 0 0 1 6.035-2.616h.089-.005c1.264 0 2.408.248 3.432.744a7.971 7.971 0 0 1 2.664 1.968 8.93 8.93 0 0 1 1.707 2.747l.021.061c.4 1.024.6 2.072.6 3.144a8.526 8.526 0 0 1-.624 3.24 8.912 8.912 0 0 1-1.78 2.764l.004-.004a8.898 8.898 0 0 1-2.657 1.897l-.055.023c-1.024.464-2.152.696-3.384.696zm-4.44-8.64c0 .656.096 1.296.288 1.92.192.608.472 1.152.84 1.632.384.48.856.864 1.416 1.152s1.2.432 1.92.432c.752 0 1.408-.144 1.968-.432.56-.304 1.024-.704 1.392-1.2s.64-1.048.816-1.656c.182-.567.287-1.219.287-1.896s-.105-1.329-.299-1.941l.012.045a5.016 5.016 0 0 0-.872-1.642l.008.01a3.976 3.976 0 0 0-1.393-1.142l-.023-.01a4.222 4.222 0 0 0-1.826-.409l-.074.001h.004c-.752 0-1.408.144-1.968.432a4.271 4.271 0 0 0-1.392 1.176 5.172 5.172 0 0 0-.83 1.619l-.01.037a6.538 6.538 0 0 0-.264 1.862v.01-.001z" style="fill:var(--color2, #2e2f42)"/></symbol><symbol id="icon-sm-facebook" viewBox="0 0 18 32"><path fill="#f4f4fd" d="M13.33 5.314h2.92V.226A36.551 36.551 0 0 0 12.125 0h-.138.007C7.782 0 4.9 2.65 4.9 7.52V12H.25v5.688h4.648V32h5.698V17.69h4.46l.708-5.69h-5.17V8.08c.002-1.644.444-2.768 2.736-2.768z" style="fill:var(--color3, #f4f4fd)"/></symbol><symbol id="icon-sm-instagran" viewBox="0 0 32 32"><path fill="#f4f4fd" d="M16.096 2.851C8.956 3.013 3.231 8.84 3.231 16.003s5.726 12.99 12.85 13.152h.015c7.14-.162 12.865-5.989 12.865-13.152s-5.726-12.99-12.85-13.152h-.015zm0 21.687a8.534 8.534 0 0 1 0-17.068 8.534 8.534 0 0 1 0 17.068z" style="fill:var(--color3, #f4f4fd)"/></symbol><symbol id="icon-sm-linkedin" viewBox="0 0 32 32"><path fill="#f4f4fd" d="M31.992 32H32V20.26c0-5.74-1.236-10.164-7.948-10.164-3.226 0-5.392 1.772-6.276 3.45h-.094v-2.912H11.32V32h6.628V21.42c0-2.784.528-5.476 3.976-5.476 3.4 0 3.45 3.178 3.45 5.656V32h6.62zM.528 10.636h6.634V32H.528V10.636zM3.842 0C1.722 0 .002 1.72.002 3.84s1.72 3.88 3.84 3.88c2.122 0 3.844-1.76 3.844-3.88S5.96 0 3.84 0z" style="fill:var(--color3, #f4f4fd)"/></symbol><symbol id="icon-sm-twiter" viewBox="0 0 37 32"><path fill="#f4f4fd" d="M36.571 4.661c-1.257.564-2.715.98-4.242 1.176l-.078.008a7.49 7.49 0 0 0 3.283-4.091l.015-.053A14.714 14.714 0 0 1 30.891 3.5l-.096.016a7.497 7.497 0 0 0-12.969 5.125c0 .594.05 1.166.174 1.71A21.207 21.207 0 0 1 2.577 2.547l-.031-.039a7.427 7.427 0 0 0-1.023 3.784 7.5 7.5 0 0 0 3.301 6.22l.026.017a7.386 7.386 0 0 1-3.425-.94l.037.019v.082a7.533 7.533 0 0 0 5.958 7.358l.049.009a7.303 7.303 0 0 1-1.907.247H5.5h.003l-.118.001c-.461 0-.91-.047-1.344-.136l.043.007c.998 2.998 3.741 5.138 6.996 5.223h.01a14.964 14.964 0 0 1-9.279 3.198h-.017.001c-.615 0-1.205-.027-1.794-.103 3.23 2.11 7.185 3.365 11.433 3.365h.073-.004c13.797 0 21.339-11.429 21.339-21.335 0-.331-.011-.651-.027-.969a15.099 15.099 0 0 0 3.724-3.839l.034-.054z" style="fill:var(--color3, #f4f4fd)"/></symbol></defs></svg>